# xmcd
#
# Track frame offsets:
#  150
#  23252
#  43690
#  74385
#  98072
#  116951
#  140030
#  176472
#  201196
#  225805
#  249390
#  278830
#
# Disc length: 4134 seconds
#
# Revision: 0
# Processed by: cddbd v1.5.1PL0 Copyright (c) Steve Scherf et al.
# Submitted via: Collectorz.com Music Collector 6.9
#
DISCID=9e10240c
DTITLE=steve earle - Mccabe's Guitar Shop - 19th Dec 1987 - Late Show - Disc 1
DYEAR=1987
DGENRE=
TTITLE0=Baby Let Me Follow You Down
TTITLE1=Angry Young Man
TTITLE2=Hometown Blues
TTITLE3=My Old Friend The Blues
TTITLE4=Someday
TTITLE5=Little Sister
TTITLE6=Little Rock 'n Roller
TTITLE7=Saturday Night Sunday Morning
TTITLE8=Limousine Blues
TTITLE9=Even When I'm Blue
TTITLE10=Johnny Come Lately
TTITLE11=Copperhead Road
EXTD=
EXTT0=
EXTT1=
EXTT2=
EXTT3=
EXTT4=
EXTT5=
EXTT6=
EXTT7=
EXTT8=
EXTT9=
EXTT10=
EXTT11=
PLAYORDER=
